Coordinates																																									
version=1																																									
nRows=25																																									
nColumns=42																																									
inDegrees=yes																																									
																																									
"Units are S.I. units (second, meters, Newtons, ...)"																																									
"If the header above contains a line with 'inDegrees', this indicates whether rotational values are in degrees (yes) or radians (no)."																																									
																																									
endheader																																									
time	pelvis_tilt	pelvis_list	pelvis_rotation	pelvis_tx	pelvis_ty	pelvis_tz	hip_flexion_r	hip_adduction_r	hip_rotation_r	knee_angle_r	knee_adduction_r	knee_angle_r_beta	ankle_angle_r	subtalar_angle_r	mtp_angle_r	hip_flexion_l	hip_adduction_l	hip_rotation_l	knee_angle_l	knee_adduction_l	knee_angle_l_beta	ankle_angle_l	subtalar_angle_l	mtp_angle_l	lumbar_extension	lumbar_bending	lumbar_rotation	arm_flex_r	arm_add_r	arm_rot_r	elbow_flex_r	pro_sup_r	wrist_flex_r	wrist_dev_r	arm_flex_l	arm_add_l	arm_rot_l	elbow_flex_l	pro_sup_l	wrist_flex_l	wrist_dev_l
4.02	0	0	0	0	0	0	16.51271861	-9.1864113	-9.18715199	10.74765987	3.15316018	0.18758205	4.13017737	0	0	15.43739965	-8.94186525	-6.64716741	11.54253547	3.75801753	0.20145525	7.75800457	0	0	-11.80363819	-3.09301843	0.50636052	25.3972739	-19.21317937	26.84980514	90.8107066	95.4195278	0	0	30.66070483	-15.39799277	30.22225294	89.66346598	95.51251675	0	0
4.03	0	0	0	0	0	0	14.76236725	-8.99251443	-8.99456493	8.5683451	3.08983032	0.14954583	2.90347843	0	0	13.77950204	-8.54001122	-5.89456323	9.29670558	3.34627559	0.16225812	6.41018898	0	0	-11.10959417	-3.05281827	0.421272	23.30774786	-19.1115229	26.32188147	91.08881987	95.50093861	0	0	29.05140836	-15.5031761	30.23846222	89.84568633	95.43704964	0	0
4.04	0	0	0	0	0	0	12.97898565	-8.69588913	-8.82061176	6.47535438	2.93179241	0.11301625	1.68176728	0	0	12.06390298	-8.27652343	-5.35880051	7.1558424	3.020679	0.12489301	5.11917283	0	0	-10.52327624	-2.9579121	0.47755896	21.24280168	-19.11385487	25.78064733	91.40167136	95.61071741	0	0	27.50313049	-15.57106705	30.27612675	90.02059583	95.41247469	0	0
4.05	0	0	0	0	0	0	11.16094763	-8.39885723	-8.75987099	4.53208943	2.67189012	0.07909988	0.42890599	0	0	10.28647023	-7.99764706	-4.92780883	5.1301639	2.63257672	0.08953825	3.8639161	0	0	-10.17520535	-2.84465226	0.55826051	19.32294134	-19.21171008	25.38449609	91.83885403	95.75242282	0	0	26.11752525	-15.74837642	30.46734703	90.26118272	95.39222224	0	0
4.06	0	0	0	0	0	0	10.05439736	-8.17806869	-8.79862829	2.89280201	2.49564701	0.05048892	-0.51555763	0	0	9.24058318	-7.69545326	-4.58022211	3.48505363	2.16613402	0.06082566	2.8163372	0	0	-9.25002206	-2.74704711	0.56317202	17.33938962	-19.0955218	24.82168887	92.05999666	95.83821571	0	0	24.48712521	-15.80507123	30.26878835	90.48874911	95.41103475	0	0
4.07	0	0	0	0	0	0	9.38649712	-7.92409803	-9.23132746	1.73264743	2.13244836	0.0302404	-0.73090213	0	0	8.63991963	-7.39985425	-4.89373998	2.34591408	1.69655961	0.04094392	2.58164288	0	0	-8.17747861	-2.70800738	0.50349006	15.62601372	-19.1899837	24.81077418	92.20175018	95.88032837	0	0	23.0242406	-16.10133044	30.43157623	90.69426483	95.45671239	0	0
4.08	0	0	0	0	0	0	8.59179288	-7.61787831	-9.12284361	0.77187601	1.78394811	0.01347178	-2.02311162	0	0	7.61342472	-7.22801441	-4.57189775	1.05100342	1.35994083	0.01834347	1.21198411	0	0	-7.64443517	-2.69588128	0.72569484	13.79398281	-18.93474414	23.98793267	92.44354126	95.95257422	0	0	21.49889865	-16.06597601	29.93449687	91.09016542	95.47662067	0	0
4.09	0	0	0	0	0	0	8.3654552	-7.45170598	-10.04286796	0.40857002	1.4628535	0.00713089	-2.532108	0	0	7.42004888	-6.88185165	-4.85627217	0.57972873	0.76226282	0.01011818	0.6195945	0	0	-6.70524945	-2.62808357	0.67512938	12.01691336	-18.89047348	23.55087767	92.64669008	96.0857757	0	0	20.07493456	-16.17879142	29.8611073	91.30015329	95.53114504	0	0
4.1	0	0	0	0	0	0	8.40527254	-7.32395535	-10.77466008	0.27807709	1.1234887	0.00485336	-2.77152338	0	0	7.45182348	-6.53333474	-5.14644965	0.3698556	0.25908849	0.0064552	0.3177391	0	0	-5.76814949	-2.69517668	0.68209621	10.33604213	-18.74682444	23.08962069	92.73114192	96.20088775	0	0	18.77248725	-16.33359933	29.80945913	91.49033414	95.57232279	0	0
4.11	0	0	0	0	0	0	8.95717852	-7.16438621	-11.330639	0.21599043	0.81974629	0.00376974	-2.66289068	0	0	7.99863177	-6.21747164	-5.77329121	0.30180381	-0.28937498	0.00526747	0.31395773	0	0	-4.37027085	-2.67688534	0.72186721	8.80837732	-18.72088054	23.028992	92.77391204	94.85156549	0	0	17.38889385	-16.50551054	29.80835197	91.74844495	94.24741373	0	0
4.12	0	0	0	0	0	0	8.91674173	-7.14965725	-11.80865052	0.17421292	0.58896382	0.00304059	-3.06669737	0	0	7.97071281	-5.8716819	-5.57130183	0.21490585	-0.65953658	0.00375081	-0.13144849	0	0	-3.73171948	-2.76242917	0.6962085	7.15235118	-18.42362962	22.33184488	92.96629952	93.81531305	0	0	16.08634681	-16.51338556	29.58873256	92.12171641	93.02331753	0	0
4.13	0	0	0	0	0	0	9.02375341	-7.09270317	-12.39892886	0.14795455	0.32855745	0.00258229	-3.09565095	0	0	8.0661345	-5.58489813	-5.933048	0.1828061	-0.97059867	0.00319057	-0.20449061	0	0	-2.98746914	-2.84447848	1.06479621	5.28996021	-18.19598679	21.2605131	92.76241311	96.89198882	0	0	15.15973292	-16.53750963	29.80242884	91.79886579	94.45037036	0	0
4.14	0	0	0	0	0	0	9.11423195	-6.95567177	-12.69214289	0.12958002	0.08305495	0.0022616	-3.16155519	0	0	8.09916696	-5.37187027	-6.19958108	0.15523311	-1.32771751	0.00270933	-0.21882773	0	0	-2.3166443	-2.83937333	0.99206301	4.05538429	-17.81308429	20.89876594	92.24404622	97.67342172	0	0	13.72691767	-16.66611705	29.26728603	91.95532253	94.9827211	0	0
4.15	0	0	0	0	0	0	8.73584673	-6.75027265	-13.30983467	0.11413551	-0.03038834	0.00199204	-3.15207587	0	0	7.78857972	-5.33468367	-6.31864097	0.13658171	-1.56945263	0.0023838	-0.12316707	0	0	-2.13167632	-2.64715063	0.77907155	2.81715411	-17.59249954	20.6060656	92.13173083	95.3565929	0	0	12.51006417	-16.67605	29.01673131	92.27890288	92.94021325	0	0
4.16	0	0	0	0	0	0	9.34550417	-6.93623995	-12.89860993	0.10698435	-0.23044251	0.00186723	-3.10000466	0	0	8.19115271	-4.8539991	-6.95228763	0.12264042	-1.83224089	0.00214048	-0.08186648	0	0	-1.1402607	-3.06886297	1.1400018	1.71127671	-17.29944084	20.48230387	91.74533131	93.50533916	0	0	11.32243513	-16.83743704	28.75607789	92.53851806	91.30926889	0	0
4.17	0	0	0	0	0	0	9.21985687	-6.80445794	-13.51447286	0.09772907	-0.28948819	0.00170569	-2.99474215	0	0	8.05143878	-4.79260507	-7.19710193	0.11005133	-2.03579285	0.00192076	-0.03299263	0	0	-0.77243508	-2.90439676	1.15048734	0.50026739	-17.12360535	20.14290882	91.38046352	92.93407571	0	0	10.09245604	-16.68621132	28.2563959	92.41948833	90.87441701	0	0
4.18	0	0	0	0	0	0	9.6395493	-6.76831224	-13.41645732	0.09211253	-0.42814342	0.00160767	-2.87691163	0	0	8.36393581	-4.66622593	-7.70357228	0.10172555	-2.08995988	0.00177545	0.13764702	0	0	0.04449724	-3.03293256	1.40555434	-0.78016778	-16.58790227	19.12495005	90.16235822	98.66305986	0	0	8.98237495	-16.63303862	27.63618394	91.56778152	95.92075297	0	0
4.19	0	0	0	0	0	0	9.76666544	-6.72685093	-13.57430157	0.08609094	-0.57547307	0.00150257	-2.6667914	0	0	8.39918419	-4.49999819	-8.0395533	0.09435061	-2.27615522	0.00164673	0.28268443	0	0	0.53051849	-3.11395812	1.51528761	-1.7313729	-16.33380316	18.94098383	89.45538398	99.0072848	0	0	7.92922315	-16.60711494	27.31567008	91.32707549	96.01378048	0	0
4.2	0	0	0	0	0	0	9.91798234	-6.74497383	-13.77210604	0.08122418	-0.59727619	0.00141763	-2.52555819	0	0	8.47774167	-4.41343274	-8.53843379	0.08797807	-2.31546196	0.00153551	0.41110662	0	0	1.06968037	-3.15509533	1.6073078	-2.73896026	-15.88377691	18.34966482	88.64058282	99.53972797	0	0	6.83548035	-16.58707756	26.85647469	91.03865156	96.318454	0	0
4.21	0	0	0	0	0	0	9.82919001	-6.72157783	-14.10394418	0.07728364	-0.53016499	0.00134885	-2.43852749	0	0	8.35676441	-4.43183054	-8.95208177	0.08277991	-2.3339174	0.00144478	0.60580871	0	0	1.39091251	-3.03143087	1.55891607	-3.59338967	-15.62519253	18.15428361	87.91481289	98.44775453	0	0	5.72005493	-16.42490894	26.36188976	90.86672864	95.16612317	0	0
4.22	0	0	0	0	0	0	10.03507425	-6.77100163	-14.11894859	0.07471294	-0.53591616	0.00130399	-2.31007911	0	0	8.49416355	-4.36537828	-9.38148575	0.07889124	-2.32342575	0.00137691	0.7680228	0	0	1.93413002	-3.07513252	1.56418307	-4.39197763	-15.20859103	17.71368503	86.88275817	100.4085287	0	0	4.73660415	-16.42774011	25.97717796	90.31057031	96.34269358	0	0
4.23	0	0	0	0	0	0	9.56572171	-6.76096218	-15.01164971	0.07199775	-0.34275353	0.0012566	-2.16870254	0	0	8.2026807	-4.43566893	-9.46384891	0.07623176	-2.36125203	0.0013305	0.98017706	0	0	2.02973355	-2.76452106	1.13457808	-5.17261495	-15.07162937	17.51017331	86.19840894	98.40276391	0	0	3.82156268	-16.28542866	25.76802098	89.99982153	94.61823444	0	0
4.24	0	0	0	0	0	0	10.14617351	-6.73153876	-14.03143549	0.07194233	-0.43411471	0.00125563	-2.18003363	0	0	8.54084253	-4.44058911	-10.03726359	0.07432954	-2.30741792	0.0012973	1.03476658	0	0	2.72645905	-2.86027258	1.40950551	-5.70986854	-14.69058884	17.22617217	85.09810039	100.2467183	0	0	2.87062933	-16.27376055	25.29107864	89.52179786	95.93388042	0	0
4.25	0	0	0	0	0	0	10.7337522	-6.81487675	-13.28078414	0.07261459	-0.51484841	0.00126736	-2.21611325	0	0	8.9073722	-4.34569733	-10.49374714	0.07368824	-2.25009167	0.0012861	1.19602486	0	0	3.45865427	-3.04713093	1.68313087	-6.17665596	-14.41218752	17.3393913	84.41898653	97.00620322	0	0	2.07592948	-16.4634334	25.25150175	89.57410032	93.1716891	0	0
4.26	0	0	0	0	0	0	10.88553155	-6.82442814	-13.22957613	0.07090595	-0.44376647	0.00123754	-2.14272485	0	0	9.19516651	-4.34556681	-10.44287269	0.07314732	-2.32908312	0.00127666	1.06647253	0	0	4.08999884	-2.78094776	1.4614133	-7.01343999	-14.43520964	17.19738255	84.00411979	95.60454338	0	0	1.21737953	-16.37990619	25.14913074	89.23826403	92.02128594	0	0
